HIERARCHY
ROOT Hips
{
  OFFSET 5.84602e-005 68.8428 3.50346
  CHANNELS 6 Xposition Yposition Zposition Zrotation Xrotation Yrotation
  JOINT Spine
  {
    OFFSET 0 8.597 -4.6522
    CHANNELS 3 Zrotation Xrotation Yrotation
    JOINT Spine1
    {
      OFFSET 0 7.8454 0.4098
      CHANNELS 3 Zrotation Xrotation Yrotation
      JOINT Spine2
      {
        OFFSET 0 9.7078 -2.1609
        CHANNELS 3 Zrotation Xrotation Yrotation
        JOINT Neck
        {
          OFFSET 0 21.8761 -0.4549
          CHANNELS 3 Zrotation Xrotation Yrotation
          JOINT Head
          {
            OFFSET 0 12.3537 3.3602
            CHANNELS 3 Zrotation Xrotation Yrotation
            End Site
            {
              OFFSET 0.0001 18.9506 0.5657
            }
          }
        }
        JOINT LeftShoulder
        {
          OFFSET 2.2086 21.1115 7.2329
          CHANNELS 3 Zrotation Xrotation Yrotation
          JOINT LeftArm
          {
            OFFSET 13.1193 3.0282 -4.8998
            CHANNELS 3 Zrotation Xrotation Yrotation
            JOINT LeftForeArm
            {
              OFFSET 27.4081 -0.0973053 -0.2375
              CHANNELS 3 Zrotation Xrotation Yrotation
              JOINT LeftHand
              {
                OFFSET 22.8641 0.0662994 -0.1369
                CHANNELS 3 Zrotation Xrotation Yrotation
                JOINT LeftHandIndex1
                {
                  OFFSET 8.8614 0.775009 2.4612
                  CHANNELS 3 Zrotation Xrotation Yrotation
                  JOINT LeftHandIndex2
                  {
                    OFFSET 3.3146 -0.808304 0.5841
                    CHANNELS 3 Zrotation Xrotation Yrotation
                    JOINT LeftHandIndex3
                    {
                      OFFSET 2.2628 -0.552002 0.3989
                      CHANNELS 3 Zrotation Xrotation Yrotation
                      End Site
                      {
                        OFFSET 1.6102 -0.4807 0.2612
                      }
                    }
                  }
                }
                JOINT LeftHandMiddle1
                {
                  OFFSET 8.9937 0.895004 0.2143
                  CHANNELS 3 Zrotation Xrotation Yrotation
                  JOINT LeftHandMiddle2
                  {
                    OFFSET 4.0984 0.0113983 -0.0242
                    CHANNELS 3 Zrotation Xrotation Yrotation
                    JOINT LeftHandMiddle3
                    {
                      OFFSET 2.2716 0.00689697 -0.0138001
                      CHANNELS 3 Zrotation Xrotation Yrotation
                      End Site
                      {
                        OFFSET 2.0404 -0.1441 0.0027
                      }
                    }
                  }
                }
                JOINT LeftHandRing1
                {
                  OFFSET 8.5234 0.597198 -2.0164
                  CHANNELS 3 Zrotation Xrotation Yrotation
                  JOINT LeftHandRing2
                  {
                    OFFSET 3.7188 -0.188293 -0.2328
                    CHANNELS 3 Zrotation Xrotation Yrotation
                    JOINT LeftHandRing3
                    {
                      OFFSET 2.1191 -0.106598 -0.1332
                      CHANNELS 3 Zrotation Xrotation Yrotation
                      End Site
                      {
                        OFFSET 1.8737 -0.2304 -0.0886
                      }
                    }
                  }
                }
                JOINT LeftHandPinky1
                {
                  OFFSET 7.9094 -0.601089 -3.4825
                  CHANNELS 3 Zrotation Xrotation Yrotation
                  JOINT LeftHandPinky2
                  {
                    OFFSET 2.2874 -0.477005 -0.6314
                    CHANNELS 3 Zrotation Xrotation Yrotation
                    JOINT LeftHandPinky3
                    {
                      OFFSET 1.6774 -0.349396 -0.4633
                      CHANNELS 3 Zrotation Xrotation Yrotation
                      End Site
                      {
                        OFFSET 1.4888 -0.4091 -0.3416
                      }
                    }
                  }
                }
                JOINT LeftHandThumb1
                {
                  OFFSET 1.833 -1.3875 1.3896
                  CHANNELS 3 Zrotation Xrotation Yrotation
                  JOINT LeftHandThumb2
                  {
                    OFFSET 3.4129 -1.121 2.5732
                    CHANNELS 3 Zrotation Xrotation Yrotation
                    JOINT LeftHandThumb3
                    {
                      OFFSET 2.2474 -0.804199 1.6192
                      CHANNELS 3 Zrotation Xrotation Yrotation
                      End Site
                      {
                        OFFSET 1.6527 -0.5689 1.1317
                      }
                    }
                  }
                }
              }
            }
          }
        }
        JOINT RightShoulder
        {
          OFFSET -2.2086 21.1115 7.2329
          CHANNELS 3 Zrotation Xrotation Yrotation
          JOINT RightArm
          {
            OFFSET -13.1216 3.0287 -4.9007
            CHANNELS 3 Zrotation Xrotation Yrotation
            JOINT RightForeArm
            {
              OFFSET -27.4081 -0.0973053 -0.2375
              CHANNELS 3 Zrotation Xrotation Yrotation
              JOINT RightHand
              {
                OFFSET -22.8641 0.0664063 -0.1369
                CHANNELS 3 Zrotation Xrotation Yrotation
                JOINT RightHandIndex1
                {
                  OFFSET -8.8614 0.774994 2.4612
                  CHANNELS 3 Zrotation Xrotation Yrotation
                  JOINT RightHandIndex2
                  {
                    OFFSET -3.3146 -0.808304 0.5841
                    CHANNELS 3 Zrotation Xrotation Yrotation
                    JOINT RightHandIndex3
                    {
                      OFFSET -2.2628 -0.552002 0.3989
                      CHANNELS 3 Zrotation Xrotation Yrotation
                      End Site
                      {
                        OFFSET -1.6102 -0.4807 0.2612
                      }
                    }
                  }
                }
                JOINT RightHandMiddle1
                {
                  OFFSET -8.9937 0.894989 0.2143
                  CHANNELS 3 Zrotation Xrotation Yrotation
                  JOINT RightHandMiddle2
                  {
                    OFFSET -4.0984 0.0113983 -0.0242
                    CHANNELS 3 Zrotation Xrotation Yrotation
                    JOINT RightHandMiddle3
                    {
                      OFFSET -2.2716 0.00691223 -0.0138001
                      CHANNELS 3 Zrotation Xrotation Yrotation
                      End Site
                      {
                        OFFSET -2.0404 -0.1441 0.0027
                      }
                    }
                  }
                }
                JOINT RightHandRing1
                {
                  OFFSET -8.5234 0.597198 -2.0164
                  CHANNELS 3 Zrotation Xrotation Yrotation
                  JOINT RightHandRing2
                  {
                    OFFSET -3.7188 -0.188309 -0.2328
                    CHANNELS 3 Zrotation Xrotation Yrotation
                    JOINT RightHandRing3
                    {
                      OFFSET -2.1191 -0.106598 -0.1332
                      CHANNELS 3 Zrotation Xrotation Yrotation
                      End Site
                      {
                        OFFSET -1.8737 -0.2304 -0.0886
                      }
                    }
                  }
                }
                JOINT RightHandPinky1
                {
                  OFFSET -7.9094 -0.601105 -3.4825
                  CHANNELS 3 Zrotation Xrotation Yrotation
                  JOINT RightHandPinky2
                  {
                    OFFSET -2.2874 -0.477005 -0.6314
                    CHANNELS 3 Zrotation Xrotation Yrotation
                    JOINT RightHandPinky3
                    {
                      OFFSET -1.6774 -0.349396 -0.4633
                      CHANNELS 3 Zrotation Xrotation Yrotation
                      End Site
                      {
                        OFFSET -1.4888 -0.4091 -0.3416
                      }
                    }
                  }
                }
                JOINT RightHandThumb1
                {
                  OFFSET -1.833 -1.38751 1.3896
                  CHANNELS 3 Zrotation Xrotation Yrotation
                  JOINT RightHandThumb2
                  {
                    OFFSET -3.41299 -1.12099 2.5732
                    CHANNELS 3 Zrotation Xrotation Yrotation
                    JOINT RightHandThumb3
                    {
                      OFFSET -2.24741 -0.804108 1.6192
                      CHANNELS 3 Zrotation Xrotation Yrotation
                      End Site
                      {
                        OFFSET -1.6527 -0.5689 1.1317
                      }
                    }
                  }
                }
              }
            }
          }
        }
      }
    }
  }
  JOINT RightUpLeg
  {
    OFFSET -9.1966 3.8861 -0.7581
    CHANNELS 3 Zrotation Xrotation Yrotation
    JOINT RightLeg
    {
      OFFSET -0.7359 -41.0265 0
      CHANNELS 3 Zrotation Xrotation Yrotation
      JOINT RightFoot
      {
        OFFSET 0 -40.2855 0
        CHANNELS 3 Zrotation Xrotation Yrotation
        JOINT RightToeBase
        {
          OFFSET 0 -5.6122 11.7359
          CHANNELS 3 Zrotation Xrotation Yrotation
          End Site
          {
            OFFSET 0 0 7.8731
          }
        }
      }
    }
  }
  JOINT LeftUpLeg
  {
    OFFSET 9.1965 3.8864 -0.7581
    CHANNELS 3 Zrotation Xrotation Yrotation
    JOINT LeftLeg
    {
      OFFSET 0.7359 -41.0268 0
      CHANNELS 3 Zrotation Xrotation Yrotation
      JOINT LeftFoot
      {
        OFFSET 0 -40.2855 0
        CHANNELS 3 Zrotation Xrotation Yrotation
        JOINT LeftToeBase
        {
          OFFSET 0 -5.6122 11.7359
          CHANNELS 3 Zrotation Xrotation Yrotation
          End Site
          {
            OFFSET 0 0 7.8731
          }
        }
      }
    }
  }
}
MOTION
Frames:	4
Frame Time:	0.0333333
-12.9947 30.9026 66.268 0 71.3066 -0 -0.399494 5.74161 -0.163811 -0.788378 11.4842 -0.289344 -0.788378 11.4842 -0.289344 0.352948 -9.56475 0.057463 0.270982 -38.1716 0.162625 -8.94599 -5.8789 -11.1867 -76.5274 -15.1214 -68.726 44.4174 35.1571 -52.6427 42.2973 4.53937 1.73022 -6.50566e-008 -5.02788e-007 4.03748e-007 -3.18055e-015 4.77083e-015 -3.18055e-015 6.50566e-008 5.02788e-007 -4.03748e-007 -6.50566e-008 -5.02788e-007 4.03748e-007 -0.0145655 -9.14342e-005 -1.42136e-006 -6.30569e-008 -5.02826e-007 4.03684e-007 -6.50566e-008 -5.02788e-007 4.03748e-007 -0.0187402 -0.00117601 6.34903e-005 -3.18055e-015 -6.36111e-015 3.18055e-015 -6.50566e-008 -5.02788e-007 4.03748e-007 -0.012205 -0.0032301 0.000673065 -1.59028e-014 1.59028e-015 6.36111e-015 -6.50566e-008 -5.02788e-007 4.03748e-007 -3.18055e-015 4.77083e-015 -3.18055e-015 6.50566e-008 5.02788e-007 -4.03748e-007 7.80572 -5.00428 14.0989 74.5146 -16.9605 66.6313 -44.3743 31.5782 44.4537 -37.2809 4.08162 -1.91565 1.44693e-006 -7.69965e-007 3.50101e-007 -6.76967e-007 2.2169e-006 -6.76732e-007 1.44693e-006 -7.69966e-007 3.50101e-007 1.44693e-006 -7.69965e-007 3.50101e-007 0.0150693 -9.18644e-005 1.79821e-006 1.44689e-006 -7.69919e-007 3.50201e-007 1.44693e-006 -7.69965e-007 3.50101e-007 0.0189236 -0.00118717 -5.65631e-005 1.93846e-006 -1.35354e-006 -2.38104e-006 1.44693e-006 -7.69965e-007 3.50101e-007 0.0122132 -0.00323213 -0.000667511 1.44691e-006 -7.69911e-007 3.50145e-007 1.44693e-006 -7.69965e-007 3.50101e-007 -6.76967e-007 2.2169e-006 -6.76732e-007 1.44693e-006 -7.69966e-007 3.50101e-007 -123.677 -71.8032 -101.902 166.05 57.7609 -173.435 -20.9977 7.48231 3.51744 4.45748e-007 -5.06922e-007 3.7018e-006 123.554 -71.1677 102.213 -165.911 57.7387 173.303 21.8098 7.43329 -3.83231 -6.47001e-007 1.74594e-006 1.13189e-007 
-12.9947 30.9026 66.268 0 71.3066 -0 -0.399534 5.74161 -0.16382 -0.788459 11.4842 -0.289357 -0.78846 11.4842 -0.289357 0.353065 -9.56471 0.057462 0.270556 -38.1716 0.162516 -8.94599 -5.8789 -11.1867 -76.5274 -15.1214 -68.726 44.4174 35.1572 -52.6427 42.2973 4.53938 1.73022 7.90803e-007 -1.45704e-006 -3.45073e-007 6.36111e-015 -1.74931e-014 9.54166e-015 7.90803e-007 -1.45704e-006 -3.45073e-007 7.90803e-007 -1.45704e-006 -3.45073e-007 -0.0146598 -8.79112e-005 -2.16671e-006 7.90775e-007 -1.45699e-006 -3.4526e-007 7.90803e-007 -1.45704e-006 -3.45073e-007 -0.0188243 -0.00118067 5.41947e-005 7.90763e-007 -1.45698e-006 -3.4532e-007 7.90803e-007 -1.45704e-006 -3.45073e-007 -0.0123208 -0.00326381 0.000677967 7.90761e-007 -1.45701e-006 -3.45251e-007 7.90803e-007 -1.45704e-006 -3.45073e-007 6.36111e-015 -1.74931e-014 9.54166e-015 7.90803e-007 -1.45704e-006 -3.45073e-007 7.80571 -5.00426 14.0989 74.5146 -16.9605 66.6313 -44.3743 31.5782 44.4537 -37.2809 4.08162 -1.91566 2.63726e-006 5.3659e-007 -3.01595e-007 2.49674e-006 1.6408e-007 -2.54532e-006 -3.53113e-031 3.18055e-015 6.36111e-015 2.63726e-006 5.3659e-007 -3.01595e-007 0.0150043 -9.03911e-005 -1.82849e-006 4.91272e-007 -5.83436e-007 -2.73125e-006 2.63726e-006 5.3659e-007 -3.01595e-007 0.0189763 -0.00118921 -6.92148e-005 4.91577e-007 -5.83622e-007 -2.73124e-006 2.63726e-006 5.3659e-007 -3.01595e-007 0.0122881 -0.0032558 -0.000678371 6.36111e-015 -6.36111e-015 3.18055e-015 2.63726e-006 5.3659e-007 -3.01595e-007 2.49674e-006 1.6408e-007 -2.54532e-006 -3.53113e-031 3.18055e-015 6.36111e-015 -123.677 -71.8032 -101.902 166.05 57.7609 -173.435 -20.9977 7.48231 3.51744 4.45748e-007 -5.06922e-007 3.7018e-006 123.554 -71.1677 102.213 -165.911 57.7387 173.303 21.8098 7.43329 -3.83231 -6.47001e-007 1.74594e-006 1.13189e-007 
-12.9947 30.9026 66.268 0 71.3066 -0 -0.399837 5.63737 -0.1618 -0.789364 11.2757 -0.285934 -0.789363 11.2756 -0.285934 0.355069 -10.4357 0.0632386 0.266684 -37.2429 0.159757 -9.111 -5.53657 -11.0889 -76.5274 -15.1214 -68.726 44.4174 35.1572 -52.6427 42.1578 4.69556 1.6201 -7.07971e-008 -5.1121e-007 4.01028e-007 -1.02638e-006 -1.26379e-006 -5.92959e-007 -1.05934e-030 -6.36111e-015 -9.54166e-015 -7.07971e-008 -5.1121e-007 4.01028e-007 -0.0145829 -8.99198e-005 1.4888e-007 -3.18055e-015 1.59028e-015 -0 -7.07971e-008 -5.1121e-007 4.01028e-007 -0.0187502 -0.00117551 5.94986e-005 3.18055e-015 4.77083e-015 -0 -7.07971e-008 -5.1121e-007 4.01028e-007 -0.0122699 -0.00324948 0.000676475 6.36111e-015 3.18055e-015 3.18055e-015 -7.07971e-008 -5.1121e-007 4.01028e-007 -1.02638e-006 -1.26379e-006 -5.92959e-007 -1.05934e-030 -6.36111e-015 -9.54166e-015 7.97265 -4.68634 13.9775 74.5146 -16.9605 66.6313 -44.3743 31.5782 44.4537 -37.1426 4.26533 -1.7949 -1.27222e-014 9.54166e-015 -3.18055e-015 -2.4903e-006 -1.76193e-007 2.54779e-006 4.87329e-007 -5.75831e-007 -2.73361e-006 -1.27222e-014 9.54166e-015 -3.18055e-015 0.0150236 -9.22242e-005 8.23142e-007 3.18055e-015 0 3.18055e-015 -1.27222e-014 9.54166e-015 -3.18055e-015 0.0190308 -0.00119536 -5.65123e-005 -9.54166e-015 0 3.18055e-015 -1.27222e-014 9.54166e-015 -3.18055e-015 0.0122279 -0.00323763 -0.000677303 4.88274e-007 -5.7639e-007 -2.73362e-006 -1.27222e-014 9.54166e-015 -3.18055e-015 -2.4903e-006 -1.76193e-007 2.54779e-006 4.87329e-007 -5.75831e-007 -2.73361e-006 -123.677 -71.8032 -101.902 166.05 57.7609 -173.435 -20.9977 7.48231 3.51744 4.45748e-007 -5.06922e-007 3.7018e-006 123.554 -71.1677 102.213 -165.911 57.7387 173.303 21.8098 7.43329 -3.83231 -6.47001e-007 1.74594e-006 1.13189e-007 
-12.9947 30.9026 66.268 0 71.3066 -0 -0.400069 5.55186 -0.160146 -0.790068 11.1048 -0.283133 -0.790068 11.1047 -0.283134 0.356888 -11.1491 0.0679879 0.263976 -36.4823 0.155591 -9.24636 -5.25668 -11.0081 -76.5274 -15.1214 -68.726 44.4174 35.1572 -52.6427 42.0439 4.82355 1.53029 -4.41717e-007 -6.86618e-007 2.91459e-006 2.64834e-030 -1.59028e-014 9.54166e-015 -6.36111e-015 -1.43125e-014 1.27222e-014 -4.41717e-007 -6.86618e-007 2.91459e-006 -0.0146687 -8.87611e-005 -2.07802e-006 6.36111e-015 -6.36111e-015 9.54166e-015 -4.41717e-007 -6.86618e-007 2.91459e-006 -0.0187255 -0.00117374 5.85768e-005 3.53113e-031 -3.18055e-015 6.36111e-015 -4.41717e-007 -6.86618e-007 2.91459e-006 -0.0122764 -0.00325126 0.000677983 6.36111e-015 1.59028e-015 -0 -4.41717e-007 -6.86618e-007 2.91459e-006 2.64834e-030 -1.59028e-014 9.54166e-015 -6.36111e-015 -1.43125e-014 1.27222e-014 8.10967 -4.42649 13.8775 74.5146 -16.9605 66.6313 -44.3743 31.5782 44.4537 -37.0297 4.41586 -1.6964 -0 0 3.18055e-015 6.36111e-015 3.18055e-015 6.36111e-015 3.18055e-015 3.18055e-015 3.18055e-015 -0 0 3.18055e-015 0.0150551 -9.03532e-005 -1.12121e-006 0 0 -9.54166e-015 -0 0 3.18055e-015 0.0190024 -0.00119157 -5.73399e-005 -4.31827e-007 1.57377e-007 3.1764e-007 -0 0 3.18055e-015 0.0122859 -0.00325239 -0.000683882 -1.59028e-014 9.54166e-015 -0 -0 0 3.18055e-015 6.36111e-015 3.18055e-015 6.36111e-015 3.18055e-015 3.18055e-015 3.18055e-015 -123.677 -71.8032 -101.902 166.05 57.7609 -173.435 -20.9977 7.48231 3.51744 4.45748e-007 -5.06922e-007 3.7018e-006 123.554 -71.1677 102.213 -165.911 57.7387 173.303 21.8098 7.43329 -3.83231 -6.47001e-007 1.74594e-006 1.13189e-007 
